<svg width="32" height="32" viewBox="0 0 32 32" fill="none" xmlns="http://www.w3.org/2000/svg">
<g clip-path="url(#clip0_2053_220)">
<path d="M16 30.1239C23.8005 30.1239 30.124 23.8004 30.124 15.9999C30.124 8.19948 23.8005 1.87598 16 1.87598C8.1996 1.87598 1.8761 8.19948 1.8761 15.9999C1.8761 23.8004 8.1996 30.1239 16 30.1239Z" fill="#0D0D0D"/>
<path d="M32 16C32 24.8366 24.8366 32 16 32C7.16341 32 0 24.8366 0 16C0 7.16341 7.16341 0 16 0C24.8366 0 32 7.16341 32 16ZM16 1.87584C8.19947 1.87584 1.87584 8.19947 1.87584 16C1.87584 23.8005 8.19947 30.1242 16 30.1242C23.8005 30.1242 30.1242 23.8005 30.1242 16C30.1242 8.19947 23.8005 1.87584 16 1.87584ZM22.1088 10.1043C24.4533 10.4494 25.8425 12.0075 26.4143 14.8447C27.0202 17.851 25.2189 21.2064 22.4811 22.123C20.8919 22.655 19.3753 22.2918 17.9131 21.4479C17.9131 23.5654 17.8844 26.8415 17.8844 29.0047C17.8844 29.0047 18.1921 28.9649 18.943 28.7739C25.9509 26.9913 30.0463 20.7776 28.9018 13.6015C27.6155 5.53685 18.3461 0.580906 10.9047 3.95829C10.446 4.16651 10.2471 4.33813 10.2577 4.88469C10.288 6.46283 10.267 8.00981 10.2577 9.58859V10.4142C12.1956 10.4142 15.5829 10.4161 16.5468 10.1286C17.5308 9.8352 17.8845 9.90101 17.8845 10.9918V11.9929C19.1394 10.624 20.4378 9.85835 22.1088 10.1043ZM15.0345 20.3102C15.034 17.9593 15.0557 15.6079 15.0185 13.2574C15.0058 12.4572 14.5009 11.8323 13.6928 11.8323C13.2656 11.8323 12.8135 11.8393 12.3734 11.8323H10.2576C10.2621 13.5578 10.2576 17.3955 10.2576 19.1362C10.2576 20.5997 11.2142 21.024 12.5452 20.4435C12.7778 20.3421 12.9799 20.1714 13.2115 20.0668C13.4966 19.9378 13.8443 19.6396 14.0967 19.9838C14.3102 20.2748 14.0844 20.6421 13.8599 20.8743C13.1038 21.6566 12.1777 22.1337 11.1034 22.3484C8.89472 22.7899 7.30592 21.6898 7.30592 19.472C7.30592 17.1196 7.28427 14.1028 7.30592 11.8322H6.66133C6.31381 11.8322 5.60875 11.7582 5.60875 11.3719C5.60875 11.1379 5.90912 10.7425 6.22176 10.6368C6.66005 10.4885 7.30581 10.4142 7.30581 10.4142V6.37024C3.92779 8.87936 2.10848 14.4204 3.24704 18.8326C4.79573 24.8342 8.78507 28.1359 15.0345 29.1164C15.0345 26.1056 15.035 23.2079 15.0345 20.3102ZM17.9172 16.1135C17.9172 16.9207 17.9131 17.6991 17.9131 18.5341C17.9131 19.6933 18.9529 20.7792 20.152 21.1081C21.1587 21.3842 22.2651 20.8679 22.9354 19.8087C23.2329 19.3387 23.4416 18.8234 23.5042 18.2784C23.7508 16.1315 23.824 14.0137 22.0416 12.368C21.1824 11.5746 20.2047 11.5515 19.1815 11.9964C18.2468 12.4029 17.9131 13.1379 17.9131 14.1347V16.1135H17.9172Z" fill="#857B6B"/>
</g>
<defs>
<clipPath id="clip0_2053_220">
<rect width="32" height="32" fill="white"/>
</clipPath>
</defs>
</svg>
