<svg width="512" height="512" viewBox="0 0 512 512" fill="none" xmlns="http://www.w3.org/2000/svg">
<g clip-path="url(#clip0_2053_200)">
<path d="M256 481.983C380.807 481.983 481.983 380.807 481.983 256C481.983 131.193 380.807 30.0166 256 30.0166C131.193 30.0166 30.0169 131.193 30.0169 256C30.0169 380.807 131.193 481.983 256 481.983Z" fill="#2E2C29"/>
<path d="M512 256C512 397.385 397.385 512 256 512C114.615 512 0 397.385 0 256C0 114.615 114.615 0 256 0C397.385 0 512 114.615 512 256ZM256 30.0134C131.191 30.0134 30.0134 131.191 30.0134 256C30.0134 380.809 131.191 481.987 256 481.987C380.809 481.987 481.987 380.809 481.987 256C481.987 131.191 380.809 30.0134 256 30.0134ZM353.741 161.669C391.253 167.19 413.479 192.119 422.629 237.515C432.323 285.616 403.502 339.302 359.697 353.968C334.271 362.481 310.004 356.67 286.609 343.166C286.609 377.047 286.15 429.464 286.15 464.075C286.15 464.075 291.074 463.439 303.089 460.382C415.215 431.86 480.741 332.442 462.428 217.624C441.848 88.5897 293.538 9.2945 174.476 63.3327C167.136 66.6641 163.954 69.4101 164.123 78.1551C164.608 103.405 164.272 128.157 164.123 153.417V166.627C195.13 166.627 249.327 166.658 264.748 162.058C280.492 157.363 286.152 158.416 286.152 175.869V191.886C306.231 169.984 327.004 157.734 353.741 161.669ZM240.551 324.963C240.544 287.348 240.891 249.726 240.295 212.118C240.092 199.315 232.015 189.317 219.085 189.317C212.25 189.317 205.017 189.428 197.975 189.317H164.122C164.193 216.924 164.122 278.328 164.122 306.179C164.122 329.595 179.427 336.384 200.723 327.096C204.445 325.473 207.679 322.743 211.384 321.068C215.946 319.005 221.508 314.233 225.548 319.741C228.963 324.396 225.35 330.274 221.759 333.99C209.661 346.506 194.843 354.138 177.654 357.574C142.316 364.638 116.895 347.037 116.895 311.552C116.895 273.913 116.548 225.645 116.895 189.315H106.581C101.021 189.315 89.74 188.131 89.74 181.951C89.74 178.207 94.5459 171.88 99.5482 170.189C106.561 167.817 116.893 166.627 116.893 166.627V101.924C62.8446 142.07 33.7357 230.726 51.9526 301.322C76.7317 397.348 140.561 450.174 240.551 465.862C240.551 417.69 240.56 371.326 240.551 324.963ZM286.676 257.816C286.676 270.732 286.609 283.186 286.609 296.545C286.609 315.093 303.246 332.467 322.432 337.729C338.54 342.147 356.241 333.887 366.966 316.94C371.726 309.419 375.066 301.174 376.067 292.454C380.013 258.104 381.184 224.218 352.666 197.888C338.918 185.194 323.275 184.823 306.905 191.942C291.949 198.446 286.609 210.207 286.609 226.156V257.816H286.676Z" fill="#0D0D0D"/>
</g>
<defs>
<clipPath id="clip0_2053_200">
<rect width="512" height="512" fill="white"/>
</clipPath>
</defs>
</svg>
